<?xml version="1.0" encoding="utf-8"?>
<!-- Generator: Adobe Illustrator 25.2.3, SVG Export Plug-In . SVG Version: 6.00 Build 0)  -->
<svg version="1.1" id="Layer_1" xmlns="http://www.w3.org/2000/svg" xmlns:xlink="http://www.w3.org/1999/xlink" x="0px" y="0px"
	 viewBox="0 0 534.3 353.1" style="enable-background:new 0 0 534.3 353.1;" xml:space="preserve">
<style type="text/css">
	.st0{display:none;}
	.st1{display:inline;}
	.st2{enable-background:new    ;}
	.st3{fill:#FFFFFF;}
</style>
<g class="st0">
	<path class="st1" d="M123,235.8l133,76.8l0,0l133-76.8c7.2-4.2,11.4-11.6,11.8-19.4c0,0,0,0,0,0c0-0.3,0-0.7,0-1c0-0.1,0-0.1,0-0.2
		v-41.1c0-5.5-1.9-10.6-5.1-14.7c-0.1-0.1-0.1-0.1-0.2-0.2c-0.1-0.1-0.2-0.2-0.2-0.3c-3-3.7-7.2-6.5-12.1-7.8L158.5,90.9v-9.5
		L256,25.1l109.4,63.2c11.3,6.5,25.8,2.6,32.3-8.6l0,0c6.5-11.3,2.6-25.8-8.6-32.3L256-29.5l0,0L123,47.3
		c-7.2,4.2-11.4,11.6-11.8,19.4c0,0,0,0,0,0.1c0,0.3,0,0.7,0,1c0,0.1,0,0.1,0,0.2V109c0,0.1,0,0.2,0,0.3c0,0.3,0,0.5,0,0.8
		c0,0.2,0,0.3,0,0.5c0,0.2,0,0.4,0.1,0.7c0,0.2,0.1,0.4,0.1,0.6c0,0.2,0,0.3,0.1,0.5c0,0.3,0.1,0.6,0.1,0.8c0,0.1,0,0.2,0.1,0.3
		c0.1,0.3,0.1,0.7,0.2,1c0,0,0,0,0,0.1c0.7,3,2,5.8,3.7,8.2c0,0,0,0,0,0c0.2,0.3,0.4,0.6,0.6,0.8c0,0.1,0.1,0.1,0.1,0.1
		c0.2,0.2,0.4,0.5,0.6,0.7c0.1,0.1,0.1,0.2,0.2,0.2c0.2,0.2,0.3,0.4,0.5,0.6c0.1,0.1,0.2,0.2,0.3,0.3c0.1,0.2,0.3,0.3,0.5,0.5
		c0.1,0.1,0.2,0.2,0.4,0.4c0.1,0.1,0.3,0.3,0.4,0.4s0.3,0.2,0.4,0.4c0.1,0.1,0.3,0.2,0.4,0.4c0.1,0.1,0.3,0.2,0.5,0.4
		c0.1,0.1,0.3,0.2,0.5,0.3c0.1,0.1,0.3,0.2,0.4,0.3c0.2,0.1,0.4,0.2,0.5,0.4c0.1,0.1,0.3,0.2,0.4,0.2c0.2,0.1,0.4,0.3,0.7,0.4
		c0.1,0.1,0.2,0.1,0.3,0.2c0.3,0.2,0.6,0.3,0.8,0.4c0.1,0,0.1,0.1,0.1,0.1c1.5,0.8,3.2,1.4,4.9,1.8l224.4,60.1v9.6L256,258
		l-109.4-63.1c-11.3-6.5-25.8-2.6-32.3,8.6l0,0C107.8,214.8,111.7,229.3,123,235.8z"/>
	<path class="st1" d="M397.7,314.9L397.7,314.9c-6.5-11.3-21-15.2-32.3-8.6L256,369.4l-109.4-63.2c-11.3-6.5-25.8-2.6-32.3,8.6
		s-2.6,25.8,8.6,32.3L256,424l0,0l133-76.8C400.4,340.7,404.2,326.2,397.7,314.9z"/>
</g>
<g>
	<g class="st2">
		<path class="st3" d="M296.2,100.5v52.3c0,4.9,2.1,6.6,5.5,6.6c3.4,0,5.5-1.7,5.5-6.6v-52.3h10.1v51.7c0,10.9-5.4,17.1-15.9,17.1
			s-15.9-6.2-15.9-17.1v-51.6L296.2,100.5L296.2,100.5z"/>
		<path class="st3" d="M327.5,100.5h16.9c10.7,0,15.9,5.9,15.9,16.8v34.3c0,10.9-5.2,16.8-15.9,16.8h-16.9L327.5,100.5L327.5,100.5z
			 M338.1,110.2v48.5h6c3.4,0,5.4-1.8,5.4-6.6v-35.3c0-4.8-2-6.6-5.4-6.6L338.1,110.2L338.1,110.2z"/>
		<path class="st3" d="M392.2,168.3c-0.6-1.7-1-2.8-1-8.3v-10.7c0-6.3-2.1-8.6-7-8.6h-3.7v27.6h-10.7v-67.8H386
			c11,0,15.8,5.1,15.8,15.6v5.3c0,7-2.2,11.5-7,13.8c5.3,2.2,7.1,7.4,7.1,14.4v10.5c0,3.3,0.1,5.7,1.2,8.2L392.2,168.3L392.2,168.3z
			 M380.6,110.2V131h4.2c4,0,6.4-1.7,6.4-7.2v-6.7c0-4.8-1.6-7-5.4-7H380.6z"/>
		<path class="st3" d="M421.9,100.5v52.3c0,4.9,2.1,6.6,5.5,6.6s5.5-1.7,5.5-6.6v-52.3h10.1v51.7c0,10.9-5.4,17.1-15.9,17.1
			c-10.5,0-15.9-6.2-15.9-17.1v-51.6L421.9,100.5L421.9,100.5z"/>
		<path class="st3" d="M469.2,130.5h14.9V152c0,10.8-5.4,17.1-15.9,17.1s-15.9-6.2-15.9-17.1v-35.3c0-10.9,5.4-17.1,15.9-17.1
			s15.9,6.2,15.9,17.1v6.6h-10.1v-7.3c0-4.9-2.1-6.7-5.5-6.7c-3.4,0-5.5,1.8-5.5,6.7v36.6c0,4.8,2.1,6.6,5.5,6.6s5.5-1.7,5.5-6.6
			v-12.5h-4.8L469.2,130.5L469.2,130.5z"/>
		<path class="st3" d="M528.4,168.3h-10.8l-1.8-12.3h-13.1l-1.8,12.3H491l10.8-67.8h15.6L528.4,168.3z M504,146.8h10.3l-5.1-34.3
			L504,146.8z"/>
	</g>
	<g class="st2">
		<path class="st3" d="M300.2,179.3c10.4,0,15.7,6.2,15.7,17.1v2.6h-10.1v-3.3c0-4.9-1.9-6.7-5.3-6.7s-5.3,1.8-5.3,6.7
			c0,14,20.8,16.6,20.8,36c0,10.9-5.4,17.1-15.9,17.1s-15.9-6.2-15.9-17.1V227h10.1v5.3c0,4.9,2.1,6.6,5.5,6.6
			c3.4,0,5.5-1.7,5.5-6.6c0-14-20.8-16.6-20.8-36C284.5,185.5,289.9,179.3,300.2,179.3z"/>
		<path class="st3" d="M351.7,211.7l-3.9,36.1h-14.6l-7.6-67.8H336l5.7,53.5l5.1-53.5h10.3l5.3,53.9L368,180h9.3l-7.6,67.8h-14.1
			L351.7,211.7z"/>
		<path class="st3" d="M388.5,180h10.7v67.8h-10.7V180z"/>
		<path class="st3" d="M409.9,180h33v9.7h-11.1v58.1h-10.7v-58.1h-11.1L409.9,180L409.9,180z"/>
		<path class="st3" d="M484.6,222.6v9c0,10.9-5.4,17.1-15.9,17.1s-15.9-6.2-15.9-17.1v-35.3c0-10.9,5.4-17.1,15.9-17.1
			s15.9,6.2,15.9,17.1v6.6h-10.1v-7.3c0-4.9-2.1-6.7-5.5-6.7c-3.4,0-5.5,1.8-5.5,6.7v36.6c0,4.9,2.1,6.6,5.5,6.6s5.5-1.7,5.5-6.6
			v-9.7L484.6,222.6L484.6,222.6z"/>
		<path class="st3" d="M507.6,247.9H497V180h10.7v29.1h12.1V180h10.8v67.8h-10.8v-29.1h-12.1V247.9z"/>
	</g>
	<path class="st3" d="M247,309.6L247,309.6c-5.7,0-10.4-4.6-10.4-10.4V87.4l0,0c5.7,0,10.4,4.6,10.4,10.4V309.6z"/>
	<g>
		<path class="st3" d="M194.6,216.7c-8.6-8.2-28.1-18.2-31.1-19.7C166.5,198.5,186,208.5,194.6,216.7z"/>
		<path class="st3" d="M97.6,84.3l73.7,42.5c7.6,4.4,17.4,1.8,21.8-5.8c4.4-7.6,1.8-17.4-5.8-21.8L97.6,47.5L25.3,89.3l46.6,9.9
			L97.6,84.3z"/>
		<path class="st3" d="M0,141.6c0,0.1,0,0.2,0,0.3c0,0.3,0.1,0.6,0.1,0.9c0,0.3,0.1,0.6,0.1,0.9c0,0.1,0,0.1,0,0.2
			c0,0.2,0.1,0.5,0.1,0.7c0,0,0,0,0,0c0.5,2,1.3,3.9,2.5,5.5c0,0,0,0,0,0c0.2,0.2,0.3,0.4,0.5,0.6c0.3,0.3,0.6,0.7,0.9,1
			c0.1,0.1,0.1,0.1,0.2,0.2c0.3,0.3,0.6,0.6,0.9,0.8c0.2,0.2,0.4,0.3,0.6,0.5c0.3,0.2,0.6,0.5,0.9,0.7c0.1,0.1,0.2,0.2,0.4,0.2
			c0.2,0.2,0.5,0.3,0.7,0.4c0.1,0,0.1,0.1,0.2,0.1c1.2,0.7,2.5,1.2,3.9,1.6l151.2,40.5v0c3.2,1.6,22.5,11.5,31.3,19.8
			c0.3-1.1,0.5-2.3,0.5-3.4c0,0,0,0,0,0c0-0.3,0-0.5,0-0.8v-27.7c0-3.7-1.3-7.2-3.4-9.9c-0.1-0.1-0.2-0.2-0.3-0.3
			c-2-2.5-4.8-4.4-8.2-5.3c-1.6-0.4-149.8-40.1-151.4-40.6v0c-0.5-0.3-19.8-10.8-31.1-20.3l0,0l0,0c-0.4,1.3-0.6,2.6-0.7,4
			c0,0,0,0,0,0c0,0.3,0,0.5,0,0.8v27.7C0,141.1,0,141.4,0,141.6z"/>
		<path class="st3" d="M8,226.3L97.6,278l69.2-39.9l-22.9-23.6l-46.3,26.7l-73.7-42.5c-7.6-4.4-17.4-1.8-21.8,5.8S0.4,221.9,8,226.3
			z"/>
		<path class="st3" d="M193.1,279.6c-4.4-7.6-14.1-10.2-21.8-5.8l-73.7,42.5l-73.7-42.5c-7.6-4.4-17.4-1.8-21.8,5.8
			c-4.4,7.6-1.8,17.4,5.8,21.8l89.6,51.7l89.6-51.7C194.8,296.9,197.4,287.2,193.1,279.6z"/>
		<path class="st3" d="M31.9,128.6C31.9,128.6,31.9,128.6,31.9,128.6l0-6.4h0l40-23.1l-46.6-9.9L8,99.3c-3.6,2.1-6.1,5.4-7.2,9.1
			C12.2,117.9,31.5,128.4,31.9,128.6L31.9,128.6z"/>
		<path class="st3" d="M31.9,128.6L31.9,128.6c-0.4-0.2-19.7-10.8-31.1-20.3l0,0C12.1,117.8,31.4,128.4,31.9,128.6z"/>
		<path class="st3" d="M31.9,128.6L31.9,128.6c-0.4-0.2-19.7-10.8-31.1-20.3l0,0C12.1,117.8,31.4,128.4,31.9,128.6z"/>
		<path class="st3" d="M163.3,196.9v6.4l-19.4,11.2l22.9,23.6l20.4-11.8c3.8-2.2,6.3-5.7,7.4-9.6
			C185.8,208.4,166.5,198.5,163.3,196.9z"/>
	</g>
	<g>
		<path class="st3" d="M386.8,290.4l4.3-5.2c3,2.5,6.1,4.1,10,4.1c3,0,4.8-1.2,4.8-3.1v-0.1c0-1.9-1.1-2.8-6.7-4.2
			c-6.7-1.7-11-3.6-11-10.2v-0.1c0-6.1,4.9-10.1,11.7-10.1c4.9,0,9,1.5,12.4,4.2l-3.8,5.5c-3-2.1-5.9-3.3-8.7-3.3s-4.3,1.3-4.3,2.9
			v0.1c0,2.2,1.4,2.9,7.2,4.4c6.8,1.8,10.6,4.2,10.6,10v0.1c0,6.6-5,10.3-12.2,10.3C395.9,295.7,390.8,293.9,386.8,290.4z"/>
		<path class="st3" d="M419.1,280.9v-19.1h7.3v18.9c0,5.4,2.7,8.2,7.2,8.2s7.2-2.7,7.2-8v-19.1h7.3v18.8c0,10.1-5.7,15.1-14.6,15.1
			S419.1,290.7,419.1,280.9z"/>
		<path class="st3" d="M455.6,261.9h7.9l8.8,14.1l8.8-14.1h7.9v33.3h-7.3v-21.8l-9.4,14.2h-0.2l-9.3-14.1v21.6h-7.2L455.6,261.9
			L455.6,261.9z"/>
		<path class="st3" d="M498.2,261.9h2.5v33.3h-2.5V261.9z"/>
		<path class="st3" d="M520.2,264.2h-11.6v-2.3h25.7v2.3h-11.6v31.1h-2.5L520.2,264.2L520.2,264.2z"/>
	</g>
</g>
<g>
	<path class="st3" d="M155,3.1c1.6,0,3,0.2,4.1,0.7c1.1,0.5,2.1,1.1,2.8,1.9c0.7,0.8,1.2,1.7,1.6,2.6c0.3,1,0.5,2,0.5,3.1
		c0,1-0.2,2.1-0.5,3.1c-0.3,1-0.8,1.9-1.6,2.7c-0.7,0.8-1.6,1.4-2.8,1.9c-1.1,0.5-2.5,0.7-4.1,0.7h-6v9.3h-5.7V3.1H155z M153.5,15.2
		c0.7,0,1.3,0,1.9-0.1c0.6-0.1,1.1-0.3,1.6-0.6c0.5-0.3,0.8-0.7,1.1-1.2c0.3-0.5,0.4-1.2,0.4-2c0-0.8-0.1-1.5-0.4-2
		c-0.3-0.5-0.6-0.9-1.1-1.2c-0.5-0.3-1-0.5-1.6-0.6c-0.6-0.1-1.2-0.1-1.9-0.1h-4.4v7.7H153.5z"/>
	<path class="st3" d="M167.2,10.7c0.6-1.7,1.4-3.1,2.5-4.3c1.1-1.2,2.4-2.2,4-2.9c1.6-0.7,3.4-1,5.3-1c2,0,3.8,0.3,5.4,1
		c1.6,0.7,2.9,1.7,4,2.9c1.1,1.2,1.9,2.7,2.5,4.3c0.6,1.7,0.9,3.4,0.9,5.4c0,1.9-0.3,3.6-0.9,5.3c-0.6,1.6-1.4,3-2.5,4.2
		c-1.1,1.2-2.4,2.2-4,2.8c-1.6,0.7-3.3,1-5.4,1c-2,0-3.8-0.3-5.3-1c-1.6-0.7-2.9-1.6-4-2.8c-1.1-1.2-1.9-2.6-2.5-4.2
		c-0.6-1.6-0.9-3.4-0.9-5.3C166.4,14.2,166.7,12.4,167.2,10.7z M172.4,19.3c0.3,1,0.7,1.9,1.2,2.8c0.6,0.8,1.3,1.5,2.2,2
		c0.9,0.5,2,0.7,3.3,0.7s2.4-0.2,3.3-0.7c0.9-0.5,1.6-1.2,2.2-2c0.6-0.8,1-1.7,1.2-2.8c0.3-1,0.4-2.1,0.4-3.2c0-1.1-0.1-2.2-0.4-3.3
		c-0.3-1.1-0.7-2-1.2-2.8c-0.6-0.8-1.3-1.5-2.2-2c-0.9-0.5-2-0.7-3.3-0.7s-2.4,0.2-3.3,0.7s-1.6,1.2-2.2,2c-0.6,0.8-1,1.8-1.2,2.8
		c-0.3,1.1-0.4,2.2-0.4,3.3C172.1,17.2,172.2,18.2,172.4,19.3z"/>
	<path class="st3" d="M214.6,28.9l-4.4-17.6h-0.1l-4.3,17.6h-5.7l-6.8-25.8h5.7l4.1,17.6h0.1l4.5-17.6h5.3l4.4,17.8h0.1l4.2-17.8
		h5.6l-6.9,25.8H214.6z"/>
	<path class="st3" d="M249,3.1v4.8h-13.6v5.5h12.5v4.4h-12.5v6.3h13.9v4.8h-19.6V3.1H249z"/>
	<path class="st3" d="M267.1,3.1c1.2,0,2.2,0.2,3.1,0.6c0.9,0.4,1.7,0.9,2.4,1.5c0.7,0.7,1.2,1.4,1.5,2.3c0.4,0.9,0.5,1.8,0.5,2.8
		c0,1.5-0.3,2.8-1,3.9c-0.6,1.1-1.7,2-3.1,2.5v0.1c0.7,0.2,1.3,0.5,1.7,0.9s0.8,0.9,1.1,1.4c0.3,0.5,0.5,1.1,0.6,1.8
		c0.1,0.7,0.2,1.3,0.3,2c0,0.4,0,0.9,0.1,1.4c0,0.6,0.1,1.1,0.1,1.7c0.1,0.6,0.2,1.1,0.3,1.6c0.1,0.5,0.3,1,0.6,1.3h-5.7
		c-0.3-0.8-0.5-1.8-0.6-2.9c-0.1-1.1-0.2-2.2-0.3-3.3c-0.2-1.3-0.6-2.3-1.2-3c-0.6-0.6-1.7-0.9-3.1-0.9h-5.7v10.1h-5.7V3.1H267.1z
		 M265.1,14.8c1.3,0,2.3-0.3,2.9-0.9c0.7-0.6,1-1.5,1-2.8c0-1.3-0.3-2.2-1-2.7c-0.7-0.6-1.6-0.8-2.9-0.8h-6.2v7.3H265.1z"/>
	<path class="st3" d="M298.6,3.1v4.8h-13.6v5.5h12.5v4.4h-12.5v6.3h13.9v4.8h-19.6V3.1H298.6z"/>
	<path class="st3" d="M313.8,3.1c1.7,0,3.2,0.3,4.6,0.8s2.7,1.3,3.7,2.4c1,1.1,1.9,2.4,2.5,4c0.6,1.6,0.9,3.5,0.9,5.6
		c0,1.9-0.2,3.6-0.7,5.2c-0.5,1.6-1.2,3-2.2,4.1c-1,1.2-2.2,2.1-3.7,2.7c-1.5,0.7-3.2,1-5.2,1h-11.1V3.1H313.8z M313.4,24.1
		c0.8,0,1.6-0.1,2.4-0.4c0.8-0.3,1.5-0.7,2.1-1.3c0.6-0.6,1.1-1.4,1.4-2.4c0.4-1,0.5-2.2,0.5-3.6c0-1.3-0.1-2.5-0.4-3.5
		s-0.7-1.9-1.2-2.7c-0.6-0.7-1.3-1.3-2.3-1.7c-1-0.4-2.1-0.6-3.5-0.6h-4v16.3H313.4z"/>
	<path class="st3" d="M351.7,3.1c1.2,0,2.4,0.1,3.4,0.3c1,0.2,1.9,0.6,2.6,1.1c0.7,0.5,1.3,1.2,1.7,2s0.6,1.8,0.6,3
		c0,1.3-0.3,2.4-0.9,3.3c-0.6,0.9-1.5,1.6-2.6,2.1c1.6,0.5,2.8,1.3,3.6,2.4c0.8,1.1,1.2,2.5,1.2,4.1c0,1.3-0.3,2.4-0.8,3.4
		c-0.5,1-1.2,1.7-2,2.3c-0.9,0.6-1.8,1-2.9,1.3c-1.1,0.3-2.2,0.4-3.4,0.4h-12.5V3.1H351.7z M350.9,13.5c1,0,1.8-0.2,2.5-0.7
		c0.7-0.5,1-1.3,1-2.3c0-0.6-0.1-1.1-0.3-1.5c-0.2-0.4-0.5-0.7-0.9-0.9c-0.4-0.2-0.8-0.4-1.2-0.5c-0.5-0.1-1-0.1-1.5-0.1h-5.3v6
		H350.9z M351.3,24.5c0.6,0,1.1-0.1,1.6-0.2c0.5-0.1,1-0.3,1.3-0.5c0.4-0.3,0.7-0.6,0.9-1c0.2-0.4,0.3-1,0.3-1.7
		c0-1.3-0.4-2.3-1.1-2.8c-0.7-0.6-1.7-0.8-3-0.8h-6.2v7.1H351.3z"/>
	<path class="st3" d="M362.2,3.1h6.4l6,10.2l6-10.2h6.3L377.3,19v9.9h-5.7v-10L362.2,3.1z"/>
	<path class="st3" d="M385.5,16.1v-5.6h5.7v5.6H385.5z M391.1,23.3v5.6h-5.7v-5.6H391.1z"/>
</g>
</svg>
